Peace, Love & Misunderstanding 2011 HDRip XviD AC3 HS


Format                                   : AVI
Format/Info                              : Audio Video Interleave
File size                                : 1.96 GiB
Duration                                 : 1h 32mn
Overall bit rate                         : 3 037 Kbps
Writing application                      : VirtualDubMod 1.5.10.2 (build 2540/release)
Writing library                          : VirtualDubMod build 2540/release

Video
ID                                       : 0
Format                                   : MPEG-4 Visual
Format profile                           : Simple@L1
Format settings, BVOP                    : No
Format settings, QPel                    : No
Format settings, GMC                     : No warppoints
Format settings, Matrix                  : Default (H.263)
Codec ID                                 : XVID
Duration                                 : 1h 32mn
Bit rate                                 : 2 771 Kbps
Width                                    : 720 pixels
Height                                   : 306 pixels
Display aspect ratio                     : 2.35:1
Frame rate                               : 23.976 fps
Color space                              : YUV
Chroma subsampling                       : 4:2:0
Bit depth                                : 8 bits
Scan type                                : Progressive
Compression mode                         : Lossy
Bits/(Pixel*Frame)                       : 0.525
Stream size                              : 1.79 GiB (91%)
Writing library                          : Lavc52.116.0

Audio
ID                                       : 1
Format                                   : AC-3
Format/Info                              : Audio Coding 3
Mode extension                           : CM (complete main)
Format settings, Endianness              : Big
Codec ID                                 : 2000
Duration                                 : 1h 32mn
Bit rate mode                            : Constant
Bit rate                                 : 256 Kbps
Channel(s)                               : 6 channels
Channel positions                        : Front: L C R, Side: L R, LFE
Sampling rate                            : 44.1 KHz
Bit depth                                : 16 bits
Compression mode                         : Lossy
Stream size                              : 169 MiB (8%)
Alignment                                : Split accross interleaves
Interleave, duration                     : 42 ms (1.00 video frame)
Interleave, preload duration             : 500 ms


Sample:
 
http://zexzex.com/imagehosting/view.php?filename=911pe0.jpg
 
http://zexzex.com/imagehosting/view.php?filename=558pe1.png
 
http://zexzex.com/imagehosting/view.php?filename=949pe2.png
 
http://zexzex.com/imagehosting/view.php?filename=284pe3.png